{"asset":{"version":"2.0"},"buffers":[{"byteLength":48},{"byteLength":85,"uri":"compressed.bin"}],"bufferViews":[{"buffer":0,"byteLength":48,"byteStride":12,"extensions":{"EXT_meshopt_compression":{"buffer":1,"byteOffset":0,"byteLength":85,"byteStride":12,"count":4,"mode":"ATTRIBUTES","filter":"NONE"}}}],"accessors":[{"bufferView":0,"componentType":5126,"count":4,"type":"VEC3","min":[0.0,0.0,0.0],"max":[3.159225145742757e-38,0.0,8.963424684712807e-38]}],"meshes":[{"primitives":[{"attributes":{"POSITION":0},"mode":0}]}],"nodes":[{"mesh":0}],"scenes":[{"nodes":[0]}],"scene":0,"extensionsUsed":["EXT_meshopt_compression"],"extensionsRequired":["EXT_meshopt_compression"]}